# xmcd
#
# Track frame offsets:
#	150
#	16552
#	29538
#	41810
#	52104
#	65440
#	76526
#	92831
#	108067
#	119528
#	132581
#	143169
#	152969
#	169279
#	182375
#	200794
#	212175
#	230688
#	241296
#	255731
#	265616
#	279955
#
# Disc length: 3876 seconds
#
# Revision: 0
# Processed by: cddbd v1.5.2PL0 Copyright (c) Steve Scherf et al.
# Submitted via: EasyCDDAExtractor 12.0.1.1
#
DISCID=380f2216
DTITLE=JARNO SARJANEN - PIENEN POJAN HAAVEET - KOOTUT LEVYTYKSET OSA 2
DYEAR=2008
DGENRE=SUOMI
TTITLE0=Kadun lait
TTITLE1=Varjoelämää
TTITLE2=Kehäraakki
TTITLE3=Pitkä yö
TTITLE4=Taksikuski
TTITLE5=Pinen pojan haaveet
TTITLE6=Maaltapako
TTITLE7=Vie mut pois
TTITLE8=Kesäloma
TTITLE9=Syntinen yö
TTITLE10=Kehätien ratsia
TTITLE11=Hiljainen ranta
TTITLE12=Pikatien tekijä
TTITLE13=Valtatie
TTITLE14=Matkalaukkumies
TTITLE15=Asemalla
TTITLE16=Automies
TTITLE17=Paikkakunnan putkassa
TTITLE18=Nukkekoti
TTITLE19=Piikki kaikkein pahin
TTITLE20=Vangin toive
TTITLE21=Kiven sisällä
EXTD=
EXTT0=
EXTT1=
EXTT2=
EXTT3=
EXTT4=
EXTT5=
EXTT6=
EXTT7=
EXTT8=
EXTT9=
EXTT10=
EXTT11=
EXTT12=
EXTT13=
EXTT14=
EXTT15=
EXTT16=
EXTT17=
EXTT18=
EXTT19=
EXTT20=
EXTT21=
PLAYORDER=
